<svg xmlns="http://www.w3.org/2000/svg" viewBox="0 0 256 256" role="img" aria-label="Patrol mission">
  <defs>
    <radialGradient id="pBg" cx="50%" cy="28%" r="75%"><stop offset="0%" stop-color="#334155"/><stop offset="100%" stop-color="#0f172a"/></radialGradient>
    <linearGradient id="pStone" x1="0" y1="0" x2="0" y2="1"><stop stop-color="#94a3b8"/><stop stop-color="#1e293b"/></linearGradient>
    <linearGradient id="pWood" x1="0" y1="0" x2="0" y2="1"><stop stop-color="#78716c"/><stop stop-color="#292524"/></linearGradient>
    <linearGradient id="pBanner" x1="0" y1="0" x2="1" y2="1"><stop stop-color="#991b1b"/><stop stop-color="#450a0a"/></linearGradient>
    <linearGradient id="pGold" x1="0" y1="0" x2="0" y2="1"><stop stop-color="#fde68a"/><stop stop-color="#92400e"/></linearGradient>
    <linearGradient id="pSky" x1="0" y1="0" x2="0" y2="1"><stop stop-color="#475569" stop-opacity="0.3"/><stop stop-color="#0f172a" stop-opacity="0"/></linearGradient>
    <filter id="pSh"><feDropShadow dx="0" dy="6" stdDeviation="6" flood-opacity="0.6"/></filter>
  </defs>
  <rect width="256" height="256" rx="20" fill="url(#pBg)"/>
  <rect x="8" y="8" width="240" height="240" rx="14" fill="none" stroke="#d4af37" stroke-width="2" opacity="0.3"/>
  <rect x="0" y="0" width="256" height="100" fill="url(#pSky)"/>
  <path d="M128 200 L80 240 H176 Z" fill="#0f172a" opacity="0.45"/>
  <path d="M0 196 Q64 184 128 192 Q192 200 256 188 L256 240 L0 240 Z" fill="#1e293b" opacity="0.55"/>
  <g filter="url(#pSh)">
    <rect x="96" y="168" width="64" height="28" rx="2" fill="url(#pStone)" stroke="#64748b" stroke-width="2"/>
    <rect x="88" y="160" width="80" height="12" rx="2" fill="url(#pStone)" stroke="#64748b" stroke-width="2"/>
    <rect x="108" y="72" width="40" height="96" fill="url(#pStone)" stroke="#64748b" stroke-width="2"/>
    <rect x="100" y="64" width="56" height="14" rx="2" fill="url(#pStone)" stroke="#64748b" stroke-width="2"/>
    <path d="M104 64 L128 36 L152 64 Z" fill="url(#pStone)" stroke="#64748b" stroke-width="2"/>
    <rect x="120" y="44" width="16" height="24" fill="url(#pWood)" stroke="#57534e" stroke-width="1.5"/>
    <rect x="114" y="88" width="28" height="20" rx="2" fill="#0f172a" stroke="#475569" stroke-width="1.5"/>
    <rect x="114" y="120" width="28" height="20" rx="2" fill="#0f172a" stroke="#475569" stroke-width="1.5"/>
    <line x1="108" y1="108" x2="148" y2="108" stroke="#475569" stroke-width="1" opacity="0.5"/>
    <line x1="108" y1="140" x2="148" y2="140" stroke="#475569" stroke-width="1" opacity="0.5"/>
    <rect x="168" y="48" width="6" height="148" rx="2" fill="url(#pWood)" stroke="#57534e" stroke-width="1.5"/>
    <path d="M174 52 L210 68 L174 84 Z" fill="url(#pBanner)" stroke="#fca5a5" stroke-width="1.5"/>
    <path d="M186 62 L198 68 L186 74 Z" fill="url(#pGold)" opacity="0.85"/>
    <path d="M174 84 L210 100 L174 116 Z" fill="url(#pBanner)" stroke="#fca5a5" stroke-width="1.5" opacity="0.7"/>
    <rect x="82" y="188" width="92" height="8" rx="2" fill="url(#pWood)" stroke="#57534e" stroke-width="1"/>
    <path d="M82 188 L128 172 L174 188" fill="none" stroke="#64748b" stroke-width="1.5"/>
    <circle cx="128" cy="52" r="6" fill="url(#pGold)" stroke="#fde68a" stroke-width="1"/>
  </g>
  <circle cx="128" cy="128" r="76" fill="none" stroke="#d4af37" stroke-width="1.5" stroke-dasharray="8 6" opacity="0.22"/>
</svg>
