<svg xmlns="http://www.w3.org/2000/svg" viewBox="0 0 96 96" role="img" aria-label="House Stark">
  <defs>
    <linearGradient id="stSh" x1="0" y1="0" x2="0" y2="1"><stop stop-color="#64748b"/><stop stop-color="#1e293b"/></linearGradient>
    <linearGradient id="stW" x1="0" y1="0" x2="0" y2="1"><stop stop-color="#f1f5f9"/><stop stop-color="#94a3b8"/></linearGradient>
    <filter id="stG"><feDropShadow dx="0" dy="3" stdDeviation="3" flood-opacity="0.5"/></filter>
  </defs>
  <g filter="url(#stG)">
    <path d="M48 6 L84 24 V66 L48 90 L12 66 V24 Z" fill="url(#stSh)" stroke="#cbd5e1" stroke-width="2.5"/>
    <path d="M48 12 L78 26 V62 L48 82 L18 62 V26 Z" fill="none" stroke="#475569" stroke-width="1" opacity="0.6"/>
    <path d="M32 58 C34 42 40 32 48 26 C56 32 62 42 64 58 C58 54 53 52 48 52 C43 52 38 54 32 58 Z" fill="url(#stW)" stroke="#e2e8f0"/>
    <path d="M40 38 L44 48 L48 38 L52 48 L56 38 L54 52 H42 Z" fill="#cbd5e1"/>
    <circle cx="42" cy="36" r="2.5" fill="#0f172a"/>
    <circle cx="54" cy="36" r="2.5" fill="#0f172a"/>
    <path d="M44 42 Q48 46 52 42" stroke="#334155" stroke-width="1.5" fill="none"/>
    <path d="M36 50 L40 44 M60 50 L56 44" stroke="#64748b" stroke-width="2" stroke-linecap="round"/>
  </g>
</svg>
